<?xml version="1.0" encoding="UTF-8"?>
<svg version="1.1" xmlns="http://www.w3.org/2000/svg" width="512" height="512">
<path d="M0 0 C1.44329417 -0.01843851 1.44329417 -0.01843851 2.91574579 -0.03724951 C6.14274333 -0.07569214 9.36968097 -0.09978931 12.59681702 -0.12364197 C14.9097917 -0.14763311 17.22275963 -0.17228203 19.53572083 -0.19754028 C27.1354912 -0.27579683 34.73533908 -0.33121919 42.33534241 -0.38121033 C43.62930915 -0.3897506 44.9232759 -0.39829088 46.25645375 -0.40708995 C58.46546498 -0.48556799 70.67449864 -0.55347228 82.88367367 -0.59999943 C85.70944223 -0.61095669 88.53521004 -0.62208682 91.36097717 -0.63340759 C92.06325302 -0.63621125 92.76552887 -0.6390149 93.4890858 -0.64190351 C104.85136032 -0.68892134 116.21231516 -0.79474843 127.57391875 -0.92411704 C139.25619477 -1.05603155 150.93779128 -1.13066783 162.62080103 -1.15122217 C169.17381852 -1.1650202 175.72437528 -1.20413513 182.27667046 -1.30563545 C188.44760738 -1.40007413 194.61477412 -1.4227408 200.78631592 -1.39175606 C203.04302201 -1.39268485 205.29989294 -1.41903587 207.55594063 -1.4735527 C225.44642295 -1.88294132 225.44642295 -1.88294132 231.8926115 3.64503765 C234.98879363 6.73863504 237.66123244 10.0639037 240.21548051 13.61264104 C241.86268609 15.83737282 243.73709142 17.75288585 245.72767639 19.67127991 C246.30464767 20.24494797 246.88161896 20.81861603 247.47607422 21.40966797 C248.03807022 21.96336563 248.60006622 22.51706329 249.17909241 23.08753967 C249.80856277 23.71322342 250.43803314 24.33890717 251.08657837 24.98355103 C253.03283623 26.91793989 254.98242888 28.84890589 256.93299866 30.77894592 C259.53889955 33.35793893 262.1412178 35.94047601 264.74159241 38.52503967 C265.60584084 39.37684059 265.60584084 39.37684059 266.48754883 40.24584961 C269.4256983 43.16650898 272.2316121 46.14848042 274.93910217 49.28504944 C278.49822659 53.40015119 282.28188318 57.23871258 286.15174866 61.06019592 C286.85771179 61.76237244 287.56367493 62.46454895 288.29103088 63.18800354 C290.52341224 65.40829195 292.75901977 67.62528547 294.99549866 69.84144592 C297.94640244 72.76554071 300.89383069 75.69307649 303.83924866 78.62269592 C304.502995 79.27814392 305.16674133 79.93359192 305.8506012 80.60890198 C309.0171545 83.7590493 312.0700958 86.95284329 314.98890686 90.33485413 C318.56122964 94.47317396 322.36908725 98.32546539 326.25721741 102.16566467 C327.32683464 103.22960197 327.32683464 103.22960197 328.4180603 104.31503296 C330.67059966 106.55547674 332.92637346 108.79261803 335.18299866 111.02894592 C338.16898862 113.98826676 341.15159737 116.95093643 344.13221741 119.91566467 C344.8114476 120.58659653 345.4906778 121.25752838 346.19049072 121.9487915 C346.82827957 122.58327713 347.46606842 123.21776276 348.1231842 123.87147522 C348.95755257 124.69798836 348.95755257 124.69798836 349.80877686 125.54119873 C353.69751579 129.69167057 355.9950001 132.1696441 355.99886322 138.03842545 C356.00929421 139.18190075 356.0197252 140.32537606 356.03047228 141.50350213 C356.02154939 142.75513894 356.0126265 144.00677575 356.00343323 145.29634094 C356.00804266 146.64305857 356.01439587 147.98977116 356.02234221 149.33647323 C356.03905405 153.03625246 356.03078091 156.73561945 356.01839733 160.43540025 C356.0093563 164.42600704 356.02331208 168.41654236 356.03431702 172.40713501 C356.05211894 180.22546702 356.04825427 188.04364556 356.03666645 195.86198363 C356.02763639 202.2176358 356.02640629 208.57324493 356.03076172 214.92890167 C356.03137465 215.83316884 356.03198758 216.73743601 356.03261909 217.66910522 C356.03389799 219.50610498 356.03519484 221.34310473 356.03650945 223.18010446 C356.04792082 240.41391475 356.03479418 257.64763998 356.01330799 274.88143632 C355.99544861 289.663559 355.99853046 304.44555599 356.01698303 319.22767639 C356.03840081 336.39321358 356.04680937 353.55867612 356.03453398 370.72422481 C356.03325979 372.55572556 356.03200231 374.38722633 356.03076172 376.21872711 C356.02983607 377.57041118 356.02983607 377.57041118 356.02889171 378.94940199 C356.02544063 385.29416456 356.0312622 391.63887972 356.04067993 397.98363495 C356.0519119 405.72082398 356.04883522 413.45785074 356.02755696 421.19502124 C356.01706074 425.14148104 356.01289997 429.08767053 356.02615356 433.03412819 C356.03811398 436.65031483 356.03145555 440.26598184 356.01024336 443.88212165 C356.00369154 445.80288713 356.01668115 447.72368895 356.03047228 449.64441609 C355.94147995 459.48900534 353.37400816 468.04287477 346.49549866 475.34144592 C336.71410568 483.44493913 327.17031528 484.78775649 314.75587463 484.72239685 C313.3727095 484.72585806 311.98954713 484.73062572 310.60639048 484.73657858 C306.82449706 484.74905473 303.04283196 484.74293376 299.26093793 484.73361993 C295.17498081 484.72681583 291.0890622 484.7373174 287.00311279 484.74555969 C279.00621196 484.75888472 271.0093957 484.75602478 263.01249158 484.74732177 C256.5120133 484.74054079 250.01155869 484.7396303 243.51107788 484.74289322 C242.12218573 484.74358277 242.12218573 484.74358277 240.70523515 484.74428625 C238.82410553 484.74524544 236.94297592 484.74621808 235.06184632 484.74720402 C217.43125821 484.75575431 199.80071694 484.74592944 182.17013651 484.72980292 C167.04923768 484.71640007 151.92840796 484.71872826 136.80751038 484.7325592 C119.23909604 484.74862139 101.67072273 484.75493037 84.10230207 484.74572241 C82.22817453 484.74476679 80.35404699 484.74382367 78.47991943 484.74289322 C77.09683597 484.74219898 77.09683597 484.74219898 75.68581143 484.74149071 C69.19473624 484.73890274 62.70368712 484.74326767 56.21261597 484.75033188 C48.29988157 484.75875416 40.38723642 484.75645142 32.47451222 484.74048965 C28.43895375 484.73261674 24.40354398 484.72949857 20.36798668 484.7394371 C16.67062594 484.74840489 12.97355116 484.74341712 9.27621621 484.72750445 C7.31189879 484.72258897 5.34756137 484.7323345 3.38326502 484.74267614 C-7.52321157 484.67032515 -16.03548768 482.42288108 -24.50450134 475.34144592 C-32.55379087 466.71344931 -34.66327973 457.61114273 -34.62475586 446.12237549 C-34.62561028 445.19113698 -34.62646471 444.25989847 -34.62734503 443.30044061 C-34.62899261 440.17891697 -34.62349022 437.05744703 -34.61802673 433.93592834 C-34.61774468 431.69876609 -34.61790295 429.46160373 -34.61846924 427.22444153 C-34.6187565 421.14847702 -34.61287114 415.07253219 -34.60589528 408.99657226 C-34.59965002 402.64777078 -34.59905701 396.29896887 -34.59786987 389.95016479 C-34.5951135 379.29323444 -34.58886448 368.63631188 -34.5799408 357.97938538 C-34.57075957 347.00347428 -34.56368221 336.02756516 -34.55943298 325.051651 C-34.55917026 324.37491662 -34.55890754 323.69818224 -34.55863685 323.00094076 C-34.5573318 319.60590977 -34.55606809 316.21087877 -34.55482495 312.81584775 C-34.5444609 284.65770878 -34.52677563 256.4995778 -34.50450134 228.34144592 C-35.11843246 228.3440744 -35.73236359 228.34670288 -36.36489868 228.34941101 C-37.17240067 228.35145538 -37.97990265 228.35349976 -38.81187439 228.35560608 C-39.61143051 228.35823456 -40.41098663 228.36086304 -41.23477173 228.36357117 C-54.61564619 228.23313488 -65.72311776 222.93768126 -75.31309509 213.76332092 C-84.64394832 203.45114802 -87.63380652 191.25285367 -87.70762634 177.68128967 C-87.71332642 176.85496536 -87.71902649 176.02864105 -87.72489929 175.17727661 C-87.73431356 173.43163823 -87.74086901 171.68598236 -87.74473572 169.94032288 C-87.75438251 167.31133159 -87.7854152 164.68314284 -87.81700134 162.05433655 C-87.92276449 145.57870166 -85.87527168 131.06117707 -74.19200134 118.46644592 C-64.15012393 109.25577537 -52.1709339 105.26025827 -38.75450134 105.32191467 C-37.95528259 105.3247345 -37.15606384 105.32755432 -36.33262634 105.33045959 C-35.72934509 105.33408508 -35.12606384 105.33771057 -34.50450134 105.34144592 C-34.51782501 103.95654716 -34.51782501 103.95654716 -34.53141785 102.54367065 C-34.6119653 93.79166582 -34.67266831 85.03978762 -34.71175003 76.28749561 C-34.73251865 71.78912195 -34.76063705 67.29105763 -34.80625916 62.79286194 C-34.85010371 58.44210509 -34.87371883 54.09164353 -34.88401031 49.7406826 C-34.89133311 48.09068346 -34.90563028 46.44069828 -34.92742157 44.7908268 C-35.07006173 33.5310902 -34.64975118 22.84665316 -28.39122009 13.02503967 C-24.02757384 8.56838497 -20.19131066 4.96612714 -14.50450134 2.34144592 C-13.80850043 1.98755075 -13.11249952 1.63365557 -12.39540768 1.26903629 C-8.25717871 -0.05877613 -4.32217327 0.02120614 0 0 Z " fill="#7BCCFE" transform="translate(120.50450134277344,13.658554077148438)"/>
<path d="M0 0 C0.96390693 -0.00170885 1.92781386 -0.0034177 2.92093009 -0.00517833 C6.15306592 -0.00847442 9.38499448 0.00253255 12.61711121 0.01345825 C14.93309016 0.01402234 17.24906947 0.01370585 19.56504822 0.01257324 C25.85590506 0.01199863 32.14668588 0.0237705 38.43752503 0.03772116 C45.01054135 0.05021047 51.58355934 0.0513976 58.15658569 0.05377197 C69.1901532 0.05895185 80.22369403 0.0717836 91.25724792 0.08963013 C102.6211788 0.10799191 113.98510209 0.12214695 125.3490448 0.13064575 C126.04967514 0.1311712 126.75030549 0.13169665 127.47216705 0.13223802 C130.98707058 0.13484812 134.50197416 0.13737553 138.01687777 0.13986182 C167.17034338 0.16059073 196.32377935 0.19636408 225.47721863 0.24050903 C225.47721863 6.84050903 225.47721863 13.44050903 225.47721863 20.24050903 C221.17834877 20.24597748 221.17834877 20.24597748 216.79263306 20.2515564 C190.50594575 20.2868401 164.21935383 20.34187657 137.93275377 20.41842999 C134.48688245 20.42844733 131.04101067 20.43829148 127.59513855 20.44802856 C126.90913333 20.44996994 126.2231281 20.45191131 125.51633484 20.45391151 C114.41157617 20.48492469 103.30683817 20.50191025 92.20204436 20.51370326 C80.80577276 20.52611837 69.40962857 20.55392489 58.01341778 20.5951221 C51.6130386 20.61777193 45.2128141 20.63341759 38.81239128 20.63239288 C32.78855199 20.63164837 26.76505512 20.64951577 20.7413044 20.68167686 C18.53021938 20.69019787 16.31909606 20.69191093 14.10800171 20.68631172 C11.08849661 20.67968368 8.07008473 20.69756467 5.0506897 20.7215271 C3.73889737 20.70988647 3.73889737 20.70988647 2.40060419 20.69801068 C-3.38258987 20.77923034 -6.8314602 21.77791159 -11.52278137 25.24050903 C-14.79566191 29.1438383 -14.96533236 32.87207217 -14.95515442 37.78469849 C-14.96534607 38.52669998 -14.97553772 39.26870148 -14.98603821 40.03318787 C-15.01611117 42.47346605 -15.02542517 44.91335132 -15.03450012 47.35379028 C-15.05135108 49.0505961 -15.06950189 50.74738946 -15.08889771 52.44416809 C-15.13635872 56.90092071 -15.16619322 61.35762283 -15.19233704 65.81454468 C-15.22216227 70.36613943 -15.26868586 74.91756028 -15.313797 79.46902466 C-15.39978572 88.39276175 -15.46715068 97.31653467 -15.52278137 106.24050903 C-14.60524928 106.23774365 -13.68771719 106.23497828 -12.7423811 106.2321291 C9.60990629 106.16580129 31.96217665 106.11619538 54.31454182 106.08507252 C65.12409315 106.0696207 75.93357868 106.04856341 86.74308777 106.01419067 C96.16749673 105.98423672 105.59185801 105.96492179 115.01631325 105.95824355 C120.00390952 105.95434145 124.99136944 105.94520614 129.97892189 105.92331886 C134.67958982 105.90285893 139.38006607 105.89669436 144.08077431 105.90118599 C145.79998824 105.90036503 147.51920901 105.89445627 149.23838425 105.88289261 C165.70125947 105.77765039 178.7698211 108.14936658 191.07878113 119.68191528 C200.3249395 129.54548814 203.95872374 139.97035295 203.87565613 153.26785278 C203.87852631 154.29681168 203.88139648 155.32577057 203.88435364 156.38591003 C203.88638419 158.5499324 203.88092543 160.71397354 203.86833191 162.87796021 C203.85228093 166.16524893 203.86820724 169.45130521 203.88737488 172.73855591 C203.88539195 174.85249088 203.88154724 176.96642509 203.87565613 179.08035278 C203.88172882 180.05044785 203.88780151 181.02054291 203.89405823 182.02003479 C203.80466195 190.82299735 202.01376303 198.64124406 197.10221863 206.05300903 C196.49635925 206.96953247 195.89049988 207.88605591 195.26628113 208.83035278 C193.76932515 210.84699435 192.34077869 212.4549625 190.47721863 214.11550903 C189.81721863 214.81675903 189.15721863 215.51800903 188.47721863 216.24050903 C188.78572496 218.8215338 189.44562104 221.14096845 190.23112488 223.61550903 C196.88366899 245.21217398 190.85656692 266.92922781 181.57463074 286.73757935 C179.60388376 291.10039404 179.01783297 293.66513777 180.47721863 298.24050903 C182.02993329 301.76426024 183.79194415 305.1555025 185.60221863 308.55300903 C186.13282898 309.55702759 186.66343933 310.56104614 187.21012878 311.5954895 C192.39908662 321.29384521 197.90748103 330.78169613 203.75065613 340.09988403 C206.25094126 344.10389937 208.43127506 348.11732475 210.45378113 352.38113403 C213.36944238 358.12911087 216.0892654 363.48075521 221.47721863 367.24050903 C230.43993614 370.14083791 239.74054287 369.98623529 249.07389832 370.05886841 C253.61770093 370.30137839 257.34439303 371.40983121 261.47721863 373.24050903 C262.40792175 373.61691528 263.33862488 373.99332153 264.29753113 374.38113403 C272.81948118 378.48322525 278.31090466 383.74763826 282.47721863 392.24050903 C284.38767771 398.35397809 284.1163168 404.94727442 282.41471863 411.05300903 C279.49165708 415.86191675 275.86658347 419.44405409 270.47721863 421.24050903 C259.18122565 422.59680322 250.49729246 418.66594074 241.47721863 412.11550903 C225.22586345 399.27990866 225.22586345 399.27990866 221.75236511 393.24246216 C218.86664542 388.70263008 216.44315514 385.02035472 211.03044128 383.59716797 C203.63748692 382.64327784 196.21542423 383.06007335 188.78971863 383.36550903 C186.57301986 383.4086462 184.35621052 383.44644611 182.139328 383.47879028 C164.02166154 383.82295571 146.04814794 385.52314921 128.03971863 387.42800903 C127.15284866 387.5194368 126.2659787 387.61086456 125.35223389 387.70506287 C118.62779628 388.47961077 115.0906563 391.47737108 110.47721863 396.24050903 C109.83083435 396.89092163 109.18445007 397.54133423 108.51847839 398.2114563 C107.18598938 399.56466013 105.86073707 400.92502381 104.54240417 402.29202271 C92.33303757 414.91996317 75.5080632 432.13441433 56.66471863 432.49050903 C50.54435408 432.40950421 46.37780284 430.84544681 41.66471863 426.86550903 C37.87764178 422.32101682 37.0046108 418.45271618 37.16862488 412.63504028 C38.29769168 403.87405355 43.88923262 396.99589266 50.54362488 391.54910278 C59.17335087 385.38942359 69.45816756 382.79155706 79.60221863 380.17800903 C80.59705261 379.91181763 81.5918866 379.64562622 82.61686707 379.37136841 C87.95848898 377.98148285 93.10178425 376.98952573 98.59172058 376.47122192 C104.24761107 375.86017625 108.69878149 374.89050424 112.64079285 370.40994263 C114.53238264 367.93108272 116.23009024 365.35841321 117.89372253 362.72195435 C119.71583271 359.86658465 121.62865026 357.08374351 123.55143738 354.29519653 C133.84116372 339.263268 143.50758763 323.84227205 152.75700378 308.14968872 C153.84868439 306.30346872 154.96074057 304.46902743 156.09977722 302.65164185 C158.7941791 298.26486288 158.7941791 298.26486288 159.47721863 293.26785278 C159.14721863 292.26882935 158.81721863 291.26980591 158.47721863 290.24050903 C158.15624207 289.18694214 158.15624207 289.18694214 157.82878113 288.11209106 C156.82140128 284.82930553 155.73417043 281.57447045 154.64909363 278.31668091 C151.82653598 269.648385 151.29536076 261.56305542 151.28971863 252.49050903 C151.27747253 251.46957153 151.26522644 250.44863403 151.25260925 249.39675903 C151.22282348 233.74929933 151.22282348 233.74929933 154.47721863 227.24050903 C98.37721863 227.24050903 42.27721863 227.24050903 -15.52278137 227.24050903 C-15.43229476 267.08431252 -15.43229476 267.08431252 -15.313797 306.92800903 C-15.29576411 312.29910211 -15.2778829 317.67019562 -15.2603302 323.04129028 C-15.25812251 323.71446816 -15.25591482 324.38764604 -15.25364023 325.08122325 C-15.21827161 335.9487398 -15.19341248 346.81625628 -15.17243435 357.68380906 C-15.15067076 368.83710306 -15.11739249 379.99032987 -15.07407981 391.14356315 C-15.05011732 397.40807009 -15.03140834 403.67249431 -15.02516747 409.93704605 C-15.01913037 415.83197343 -14.99918009 421.72668908 -14.96850586 427.62153816 C-14.9597036 429.78628 -14.95600756 431.95104948 -14.95777321 434.11580849 C-14.95942203 437.06982202 -14.94275966 440.02318713 -14.92150879 442.97711182 C-14.92635637 443.83509813 -14.93120394 444.69308445 -14.93619841 445.57707036 C-14.86121459 451.88650179 -13.78911248 455.98716059 -9.16560364 460.58418369 C-4.12050118 463.55954864 2.11059219 462.78445132 7.76237488 462.74171448 C9.13271664 462.74560879 10.50305437 462.75125028 11.87338257 462.75848538 C15.63370935 462.77323963 19.39361737 462.76305923 23.15393066 462.74874866 C27.21125853 462.73764249 31.26852748 462.74958028 35.32585144 462.7585907 C43.27205293 462.77252761 51.21809555 462.76496367 59.16428947 462.74991512 C68.41675835 462.73305937 77.66918761 462.73626473 86.9216671 462.7400092 C103.42979973 462.7458886 119.93785609 462.73171304 136.44596863 462.70706177 C152.46683104 462.68314077 168.48759156 462.67605741 184.50846863 462.68655396 C201.95158451 462.69796184 219.39465325 462.69989483 236.83776855 462.68545586 C238.69756571 462.68393001 240.55736287 462.68240965 242.41716003 462.68089485 C243.33223044 462.68013704 244.24730085 462.67937922 245.19010067 462.67859844 C251.64046872 462.67385462 258.09081574 462.67570776 264.54118347 462.67996025 C272.40138187 462.68488564 280.26148391 462.67890826 288.12166023 462.65906595 C292.1325193 462.64919056 296.1432316 462.64409148 300.15409851 462.65195847 C303.82552388 462.65901236 307.49665303 462.65221768 311.16803932 462.63435484 C313.12576433 462.62839105 315.08351707 462.63713847 317.04122925 462.64640135 C325.22550037 462.69576805 325.22550037 462.69576805 332.47721863 459.24050903 C335.38991368 456.07746344 335.85370007 453.97845336 335.86197948 449.71952438 C335.87143603 448.58990681 335.88089257 447.46028924 335.89063567 446.29644084 C335.88336431 444.43458986 335.88336431 444.43458986 335.87594604 442.53512573 C335.88259287 441.21680417 335.8892397 439.89848261 335.89608794 438.54021192 C335.91415144 434.87788647 335.91355157 431.21576338 335.90995848 427.55340385 C335.90933575 423.60521017 335.9259442 419.65708506 335.94047546 415.70892334 C335.96328994 408.86744432 335.97515147 402.02601631 335.97960472 395.18450165 C335.98605917 385.29279554 336.00898409 375.40118176 336.03594802 365.50951281 C336.07924544 349.46152453 336.1091953 333.41354012 336.13078308 317.36550903 C336.15178392 301.77499483 336.17905119 286.1845124 336.21476746 270.59402466 C336.21696628 269.63326298 336.21916511 268.67250129 336.22143056 267.68262562 C336.23249999 262.86283697 336.24369284 258.04304862 336.25494707 253.2232604 C336.348174 213.22903733 336.41953071 173.23479812 336.47721863 133.24050903 C342.74721863 133.24050903 349.01721863 133.24050903 355.47721863 133.24050903 C355.56847546 174.61776425 355.63926066 215.99500519 355.68147995 257.37234118 C355.68648275 262.2576779 355.69166004 267.14301441 355.69694519 272.02835083 C355.69799443 273.00093045 355.69904367 273.97351007 355.70012471 274.97556181 C355.71752838 290.72197119 355.74906587 306.46832215 355.78582981 322.21469688 C355.82324028 338.372784 355.84545471 354.53084054 355.85357261 370.68896919 C355.85906015 380.65884298 355.87639008 390.62855161 355.9088845 400.59837455 C355.93003367 407.43571757 355.93641775 414.27297523 355.93122414 421.11034857 C355.92866299 425.05477084 355.93257995 428.99890454 355.95404053 432.94327545 C355.97356238 436.55777535 355.97445259 440.17179371 355.96081421 443.78631616 C355.95833439 445.70635412 355.9755359 447.62638673 355.99354386 449.54634184 C355.9255454 459.39500541 353.35762666 467.93992341 346.47721863 475.24050903 C336.69582565 483.34400224 327.15203525 484.6868196 314.7375946 484.62145996 C313.35442947 484.62492117 311.9712671 484.62968883 310.58811045 484.63564169 C306.80621703 484.64811784 303.02455193 484.64199687 299.2426579 484.63268304 C295.15670078 484.62587894 291.07078217 484.63638051 286.98483276 484.6446228 C278.98793193 484.65794783 270.99111567 484.65508789 262.99421155 484.64638488 C256.49373327 484.6396039 249.99327866 484.63869341 243.49279785 484.64195633 C242.1039057 484.64264588 242.1039057 484.64264588 240.68695512 484.64334936 C238.8058255 484.64430855 236.92469589 484.64528119 235.04356629 484.64626713 C217.41297818 484.65481742 199.78243691 484.64499255 182.15185648 484.62886603 C167.03095766 484.61546318 151.91012793 484.61779137 136.78923035 484.63162231 C119.22081601 484.6476845 101.6524427 484.65399348 84.08402205 484.64478552 C82.2098945 484.6438299 80.33576696 484.64288678 78.4616394 484.64195633 C77.07855594 484.64126209 77.07855594 484.64126209 75.6675314 484.64055382 C69.17645621 484.63796585 62.68540709 484.64233078 56.19433594 484.64939499 C48.28160154 484.65781727 40.36895639 484.65551453 32.45623219 484.63955276 C28.42067372 484.63167985 24.38526395 484.62856168 20.34970665 484.63850021 C16.65234591 484.647468 12.95527113 484.64248023 9.25793618 484.62656756 C7.29361876 484.62165208 5.32928134 484.63139761 3.36498499 484.64173925 C-7.5414916 484.56938826 -16.05376771 482.32194419 -24.52278137 475.24050903 C-32.5720709 466.61251242 -34.68155976 457.51020584 -34.64303589 446.0214386 C-34.64389031 445.09020009 -34.64474474 444.15896158 -34.64562505 443.19950372 C-34.64727264 440.07798008 -34.64177025 436.95651014 -34.63630676 433.83499146 C-34.63602471 431.5978292 -34.63618298 429.36066684 -34.63674927 427.12350464 C-34.63703653 421.04754013 -34.63115117 414.9715953 -34.62417531 408.89563537 C-34.61793005 402.54683389 -34.61733704 396.19803198 -34.6161499 389.84922791 C-34.61339353 379.19229755 -34.60714451 368.53537499 -34.59822083 357.87844849 C-34.5890396 346.9025374 -34.58196224 335.92662827 -34.57771301 324.95071411 C-34.57745029 324.27397973 -34.57718757 323.59724535 -34.57691688 322.90000387 C-34.57561183 319.50497288 -34.57434812 316.10994188 -34.57310498 312.71491086 C-34.56274093 284.55677189 -34.54505566 256.39864091 -34.52278137 228.24050903 C-35.13671249 228.24313751 -35.75064362 228.24576599 -36.38317871 228.24847412 C-37.19068069 228.25051849 -37.99818268 228.25256287 -38.83015442 228.25466919 C-39.62971054 228.25729767 -40.42926666 228.25992615 -41.25305176 228.26263428 C-54.63392622 228.13219799 -65.74139779 222.83674437 -75.33137512 213.66238403 C-84.66222835 203.35021113 -87.65208655 191.15191678 -87.72590637 177.58035278 C-87.73160645 176.75402847 -87.73730652 175.92770416 -87.74317932 175.07633972 C-87.75259359 173.33070134 -87.75914903 171.58504547 -87.76301575 169.83938599 C-87.77266254 167.2103947 -87.80369523 164.58220595 -87.83528137 161.95339966 C-87.94104452 145.47776478 -85.89355171 130.96024018 -74.21028137 118.36550903 C-64.16840396 109.15483848 -52.18921393 105.15932138 -38.77278137 105.22097778 C-37.97356262 105.22379761 -37.17434387 105.22661743 -36.35090637 105.22952271 C-35.74762512 105.23314819 -35.14434387 105.23677368 -34.52278137 105.24050903 C-34.53610504 103.85561028 -34.53610504 103.85561028 -34.54969788 102.44273376 C-34.63024533 93.69072893 -34.69094834 84.93885073 -34.73003006 76.18655872 C-34.75079868 71.68818506 -34.77891708 67.19012074 -34.82453918 62.69192505 C-34.86838374 58.3411682 -34.89199886 53.99070664 -34.90229034 49.63974571 C-34.90961314 47.98974657 -34.92391031 46.33976139 -34.9457016 44.68988991 C-35.08834176 33.43015331 -34.66803121 22.74571627 -28.40950012 12.92410278 C-24.04585387 8.46744808 -20.20959068 4.86519025 -14.52278137 2.24050903 C-13.82715749 1.88453203 -13.1315336 1.52855503 -12.41483021 1.16179085 C-8.26161153 -0.16124519 -4.33337989 -0.02805585 0 0 Z " fill="#4191FB" transform="translate(120.52278137207031,13.759490966796875)"/>
<path d="M0 0 C3.85314097 1.77830466 5.95019292 3.93279821 8.765625 7.140625 C13.23231156 12.14049841 17.85441979 16.94559406 22.609375 21.671875 C23.27142944 22.33062622 23.93348389 22.98937744 24.61560059 23.66809082 C26.65842582 25.69739636 28.70376392 27.72413413 30.75 29.75 C33.47697418 32.45010744 36.20041136 35.15371476 38.921875 37.859375 C39.83305084 38.75810333 39.83305084 38.75810333 40.76263428 39.67498779 C43.78384663 42.67912939 46.67938556 45.73814388 49.46386719 48.96386719 C53.0153931 53.07298996 56.79314202 56.90393966 60.65625 60.71875 C61.36221313 61.42092651 62.06817627 62.12310303 62.79553223 62.84655762 C65.02791358 65.06684603 67.26352111 67.28383955 69.5 69.5 C72.45090378 72.42409479 75.39833203 75.35163057 78.34375 78.28125 C79.33936951 79.264422 79.33936951 79.264422 80.35510254 80.26745605 C83.52216511 83.41811001 86.57492588 86.6123574 89.4934082 89.99560547 C93.06069674 94.12815613 96.8701056 97.96355888 100.76171875 101.7890625 C102.2247414 103.23945017 103.68762804 104.68997504 105.15039062 106.140625 C107.42622886 108.3916001 109.70365659 110.64092124 111.98364258 112.88769531 C114.20577033 115.07955274 116.42157888 117.27764633 118.63671875 119.4765625 C119.31594894 120.14233307 119.99517914 120.80810364 120.69499207 121.49404907 C121.65167534 122.44566422 121.65167534 122.44566422 122.62768555 123.41650391 C123.18393112 123.96529205 123.7401767 124.5140802 124.3132782 125.07949829 C126.48458362 127.55174699 128.21959352 130.23765893 130 133 C116.87361981 133.09285522 103.74731831 133.16384396 90.62067604 133.20724869 C84.52483101 133.22808529 78.42921141 133.25633154 72.33349609 133.30175781 C66.44608736 133.34535506 60.55889489 133.36916663 54.67133713 133.37950897 C52.42995171 133.38687541 50.18857756 133.40126018 47.9472847 133.42292023 C44.79744533 133.45213816 41.64848916 133.45594826 38.49853516 133.45410156 C37.58071259 133.46848267 36.66289001 133.48286377 35.71725464 133.49768066 C25.20870161 133.4314151 17.69623736 129.54676885 10.1953125 122.36328125 C2.36009638 113.9285735 -0.47008547 104.87644089 -0.34057617 93.54492188 C-0.34101425 92.52938232 -0.34145233 91.51384277 -0.34190369 90.4675293 C-0.33982544 87.13440247 -0.31653959 83.80178819 -0.29296875 80.46875 C-0.28736938 78.14848098 -0.28310089 75.82820841 -0.28010559 73.50793457 C-0.26868376 67.41860053 -0.23923932 61.32948316 -0.20599365 55.24023438 C-0.17523543 49.01956106 -0.16158796 42.79885254 -0.14648438 36.578125 C-0.11436721 24.38532178 -0.06320297 12.19267895 0 0 Z " fill="#C6E1FE" transform="translate(346,14)"/>
<path d="M0 0 C7.05375 -0.061875 14.1075 -0.12375 21.375 -0.1875 C23.58106934 -0.21481201 25.78713867 -0.24212402 28.06005859 -0.27026367 C29.83951269 -0.27903841 31.61897288 -0.28668 33.3984375 -0.29296875 C34.29731689 -0.30831665 35.19619629 -0.32366455 36.12231445 -0.33947754 C45.84590299 -0.34342915 54.72359244 1.79182184 61.8125 8.7890625 C70.33952204 17.99114046 71.20615353 27.02855343 71.3125 39.1875 C71.35600586 40.81655273 71.35600586 40.81655273 71.40039062 42.47851562 C71.4838333 53.16559616 68.50806698 62.19579116 61 70 C49.47085877 79.73008842 34.43669909 78.37184927 20.3125 78.1875 C13.609375 78.125625 6.90625 78.06375 0 78 C0 52.26 0 26.52 0 0 Z " fill="#FDFEFE" transform="translate(140,144)"/>
<path d="M0 0 C11.570625 -0.12375 11.570625 -0.12375 23.375 -0.25 C26.99734619 -0.30462402 26.99734619 -0.30462402 30.69287109 -0.36035156 C32.63638423 -0.372049 34.57990726 -0.38223832 36.5234375 -0.390625 C37.50868408 -0.41108887 38.49393066 -0.43155273 39.5090332 -0.45263672 C46.91864901 -0.45631669 54.24618889 0.62579966 59.94735718 5.75042725 C65.7716477 12.07899277 66.44872551 18.05614245 66.31640625 26.48046875 C65.75604698 32.71360085 63.60680276 36.93411074 59.8125 41.8125 C53.80101237 46.48810149 46.85601308 49.1465129 39.234375 49.09765625 C38.03119629 49.09390991 38.03119629 49.09390991 36.80371094 49.09008789 C35.79598633 49.08098389 34.78826172 49.07187988 33.75 49.0625 C30.5325 49.041875 27.315 49.02125 24 49 C24 58.57 24 68.14 24 78 C16.08 78 8.16 78 0 78 C0 52.26 0 26.52 0 0 Z " fill="#FDFEFE" transform="translate(61,144)"/>
<path d="M0 0 C19.8 0 39.6 0 60 0 C60 5.61 60 11.22 60 17 C48.45 17 36.9 17 25 17 C25 21.29 25 25.58 25 30 C34.9 30 44.8 30 55 30 C55 35.28 55 40.56 55 46 C45.1 46 35.2 46 25 46 C25 56.56 25 67.12 25 78 C16.75 78 8.5 78 0 78 C0 52.26 0 26.52 0 0 Z " fill="#F9FBFE" transform="translate(224,144)"/>
<path d="M0 0 C2.62045382 2.36179278 4.15465684 4.82375449 5.828125 7.91796875 C6.6466394 9.41239502 6.6466394 9.41239502 7.48168945 10.93701172 C8.06523193 12.00967285 8.64877441 13.08233398 9.25 14.1875 C14.93421641 24.51323461 20.94468736 34.53342497 27.28808594 44.46948242 C27.89040039 45.4154126 28.49271484 46.36134277 29.11328125 47.3359375 C29.64735596 48.16657715 30.18143066 48.9972168 30.73168945 49.85302734 C32 52 32 52 33 55 C32.1712587 55.03092239 32.1712587 55.03092239 31.32577515 55.06246948 C25.45046106 55.28286054 19.57550874 55.51157656 13.70068359 55.74462891 C11.52302799 55.82999582 9.34529451 55.9134043 7.16748047 55.99462891 C-7.61139597 56.54755685 -22.28564135 57.50638905 -37 59 C-35.5727154 56.09072222 -34.02312978 53.43511206 -32.19921875 50.75390625 C-31.36124756 49.51350586 -31.36124756 49.51350586 -30.50634766 48.24804688 C-29.90612793 47.36181641 -29.3059082 46.47558594 -28.6875 45.5625 C-22.0159336 35.63739785 -15.66335803 25.5424889 -9.42919922 15.33837891 C-7.71148899 12.52795381 -5.98395659 9.72366563 -4.25537109 6.91992188 C-2.83447334 4.61478003 -1.41704382 2.30751244 0 0 Z " fill="#7BCCFE" transform="translate(289,326)"/>
<path d="M0 0 C13.44368601 0 13.44368601 0 19 4 C23.97320974 9.29406198 23.2492133 15.47331773 23.3125 22.3125 C23.34150391 23.34568359 23.37050781 24.37886719 23.40039062 25.44335938 C23.45201221 31.63397851 23.18495971 35.3168308 19 40 C12.90512628 44.6883644 8.50402936 43 0 43 C0 28.81 0 14.62 0 0 Z " fill="#4492FB" transform="translate(164,161)"/>
<path d="M0 0 C0.99 0 1.98 0 3 0 C8.49535042 15.73371161 6.4487819 30.86985415 0 46 C-0.66 46.66 -1.32 47.32 -2 48 C-7.6709149 32.97882659 -5.80556694 16.95708586 -1 2 C-0.67 1.34 -0.34 0.68 0 0 Z " fill="#78C9FE" transform="translate(292,239)"/>
<path d="M0 0 C9.49685636 -0.77175356 18.10991387 1.380311 26.5 5.875 C33.81216458 12.09033989 33.81216458 12.09033989 34.375 17.8125 C34 21 34 21 33 22 C21.1378389 22 11.55987082 12.27323486 3.51953125 4.57421875 C1 2 1 2 0 0 Z " fill="#79CAFE" transform="translate(355,398)"/>
<path d="M0 0 C-7.7502437 8.59317051 -17.09082461 15.92180359 -28 20 C-31.9375 20.1875 -31.9375 20.1875 -35 20 C-34.9348208 16.74103995 -34.78785082 14.0641102 -32.796875 11.375 C-25.80915616 4.86217467 -9.57581327 -3.23627022 0 0 Z " fill="#7ACBFE" transform="translate(209,410)"/>
<path d="M0 0 C2.0625 -0.04125 4.125 -0.0825 6.25 -0.125 C7.99023438 -0.15980469 7.99023438 -0.15980469 9.765625 -0.1953125 C12.87728105 -0.00741056 14.46984317 0.24746018 17 2 C19.34549674 5.51824511 19.57991403 6.85775694 19 11 C16.827365 13.57285724 15.02006162 15.48996919 12 17 C9.95944995 17.07065617 7.91665743 17.08421976 5.875 17.0625 C2.966875 17.0315625 2.966875 17.0315625 0 17 C0 11.39 0 5.78 0 0 Z " fill="#4794FB" transform="translate(85,160)"/>
</svg>
